<?xml version="1.0" encoding="UTF-8"?>
<!DOCTYPE svg PUBLIC "-//W3C//DTD SVG 1.1//EN" "http://www.w3.org/Graphics/SVG/1.1/DTD/svg11.dtd">
<!-- Creator: CorelDRAW 2018 (64-Bit) -->
<svg xmlns="http://www.w3.org/2000/svg" xml:space="preserve" width="100%" height="100%" version="1.1" style="shape-rendering:geometricPrecision; text-rendering:geometricPrecision; image-rendering:optimizeQuality; fill-rule:evenodd; clip-rule:evenodd"
viewBox="0 0 20999.99 20999.98"
 xmlns:xlink="http://www.w3.org/1999/xlink">
 <defs>
  <style type="text/css">
   <![CDATA[
    .fil1 {fill:#211F1F}
    .fil0 {fill:#2D2D2D}
    .fil2 {fill:#FBBA00;fill-rule:nonzero}
   ]]>
  </style>
 </defs>
 <g id="Layer_x0020_1">
  <metadata id="CorelCorpID_0Corel-Layer"/>
  <path class="fil0" d="M2480.31 0l16039.36 0c1369.6,0.01 2480.3,1110.71 2480.3,2480.32l0.01 16039.35c-0.01,1369.59 -1110.71,2480.29 -2480.32,2480.29l-16039.35 0.02c-1369.59,-0.02 -2480.29,-1110.72 -2480.29,-2480.33l-0.02 -16039.34c0.02,-1369.6 1110.72,-2480.3 2480.33,-2480.3l-0.02 -0.01z"/>
  <path class="fil1" d="M20999.98 16584.58c-1279.94,453.05 -2657.16,700.39 -4092.31,700.39 -6772.51,0 -12262.74,-5490.22 -12262.74,-12262.74 0,-1789.54 383.56,-3489.35 1072.59,-5022.23l12802.16 0c1364.17,0 2480.31,1116.14 2480.31,2480.31l0 14104.27 -0.01 0z"/>
  <path class="fil2" d="M10027.36 8687.45c-207.1,0 -375,-167.9 -375,-375 0,-207.1 167.9,-375 375,-375l3601.53 0 0 -3601.53c0,-207.1 167.9,-375 375,-375 207.1,0 375,167.9 375,375l0 3601.53 3601.53 0c207.1,0 375,167.9 375,375 0,207.1 -167.9,375 -375,375l-3601.53 0 0 3601.53c0,207.1 -167.9,375 -375,375 -207.1,0 -375,-167.9 -375,-375l0 -3601.53 -3601.53 0z"/>
 </g>
</svg>
